<svg xmlns="http://www.w3.org/2000/svg" width="56.061" height="56.061" viewBox="0 0 56.061 56.061">
  <g id="Group_12023" data-name="Group 12023" transform="translate(-830.626 -1921.987)">
    <g id="Group_9844" data-name="Group 9844" transform="translate(846.376 1936.736)">
      <path id="Path_23857" data-name="Path 23857" d="M12.522,25.045A12.522,12.522,0,1,1,25.045,12.522,12.537,12.537,0,0,1,12.522,25.045m0-24A11.479,11.479,0,1,0,24,12.522,11.492,11.492,0,0,0,12.522,1.044" transform="translate(0.415 0.415)" fill="#0f2d96"/>
      <path id="Path_23857_-_Outline" data-name="Path 23857 - Outline" d="M12.438,25.375A12.938,12.938,0,1,1,25.375,12.438,12.952,12.952,0,0,1,12.438,25.375Zm0-25.045A12.107,12.107,0,1,0,24.545,12.438,12.121,12.121,0,0,0,12.438.331Zm0,24A11.894,11.894,0,1,1,24.332,12.438,11.908,11.908,0,0,1,12.438,24.332Zm0-22.958A11.063,11.063,0,1,0,23.5,12.438,11.076,11.076,0,0,0,12.438,1.374Z" transform="translate(0.5 0.5)" fill="#0f2d96"/>
      <path id="Path_23858" data-name="Path 23858" d="M138.522,51.538a.522.522,0,0,1-.522-.522v-8.87a.522.522,0,0,1,1.044,0v8.87a.522.522,0,0,1-.522.522" transform="translate(-125.584 -37.59)" fill="#0f2d96"/>
      <path id="Path_23858_-_Outline" data-name="Path 23858 - Outline" d="M138.437,51.869a.938.938,0,0,1-.937-.937v-8.87a.937.937,0,1,1,1.874,0v8.87A.938.938,0,0,1,138.437,51.869Zm0-9.913a.106.106,0,0,0-.106.106v8.87a.106.106,0,0,0,.213,0v-8.87A.106.106,0,0,0,138.437,41.956Z" transform="translate(-125.499 -37.505)" fill="#0f2d96"/>
      <path id="Path_23859" data-name="Path 23859" d="M143.218,147.826a.516.516,0,0,1-.291-.089l-4.7-3.163a.522.522,0,0,1,.583-.865l4.7,3.163a.522.522,0,0,1-.292.954" transform="translate(-125.585 -130.714)" fill="#0f2d96"/>
      <path id="Path_23859_-_Outline" data-name="Path 23859 - Outline" d="M143.133,148.157a.93.93,0,0,1-.524-.161l-4.695-3.162a.937.937,0,1,1,1.048-1.553l4.694,3.162a.937.937,0,0,1-.524,1.714Zm-4.695-4.207a.107.107,0,0,0-.06.195l4.7,3.163a.1.1,0,0,0,.059.018.106.106,0,0,0,.088-.046.106.106,0,0,0-.028-.148l-4.7-3.163A.1.1,0,0,0,138.438,143.95Z" transform="translate(-125.5 -130.63)" fill="#0f2d96"/>
    </g>
    <g id="Group_9875" data-name="Group 9875" transform="translate(-0.919 288.473)">
      <g id="Group_9871" data-name="Group 9871" transform="translate(-863.283 -1431.032)">
        <circle id="Ellipse_8" data-name="Ellipse 8" cx="27.281" cy="27.281" r="27.281" transform="translate(1695.578 3065.296)" fill="none" stroke="#0874f7" stroke-miterlimit="10" stroke-width="1.5"/>
      </g>
    </g>
  </g>
</svg>
