<svg xmlns="http://www.w3.org/2000/svg" xmlns:xlink="http://www.w3.org/1999/xlink" width="56.061" height="56.061" viewBox="0 0 56.061 56.061">
  <defs>
    <clipPath id="clip-path">
      <rect id="Rectangle_234" data-name="Rectangle 234" width="25.875" height="19.407" fill="#0f2d96"/>
    </clipPath>
  </defs>
  <g id="Group_12022" data-name="Group 12022" transform="translate(-830.97 -1778.988)">
    <g id="Group_9842" data-name="Group 9842" transform="translate(845.72 1796.738)">
      <g id="Group_9841" data-name="Group 9841" clip-path="url(#clip-path)">
        <path id="Path_23853" data-name="Path 23853" d="M23.044,0H3.292A3.3,3.3,0,0,0,0,3.292V15.637a3.3,3.3,0,0,0,3.292,3.292H23.044a3.3,3.3,0,0,0,3.292-3.292V3.292A3.3,3.3,0,0,0,23.044,0M24.69,15.637a1.648,1.648,0,0,1-1.646,1.646H3.292a1.648,1.648,0,0,1-1.646-1.646V3.292A1.648,1.648,0,0,1,3.292,1.646H23.044A1.648,1.648,0,0,1,24.69,3.292Z" transform="translate(-0.23 0.239)" fill="#0f2d96"/>
        <path id="Path_23854" data-name="Path 23854" d="M23.566,5.3a.823.823,0,0,0-1.158-.116l-8.532,6.981L5.344,5.186A.823.823,0,0,0,4.3,6.46l9.053,7.407a.823.823,0,0,0,1.042,0L23.45,6.46A.822.822,0,0,0,23.566,5.3" transform="translate(-0.938 -0.646)" fill="#0f2d96"/>
        <path id="Path_23855" data-name="Path 23855" d="M23.4,13.241A.823.823,0,1,0,22.241,14.4L25.533,17.7A.823.823,0,0,0,26.7,16.533Z" transform="translate(-4.124 -2.062)" fill="#0f2d96"/>
        <path id="Path_23856" data-name="Path 23856" d="M7.533,13.241,4.241,16.533A.823.823,0,1,0,5.4,17.7L8.7,14.4a.823.823,0,0,0-1.164-1.164" transform="translate(-0.938 -2.062)" fill="#0f2d96"/>
      </g>
    </g>
    <g id="Group_9874" data-name="Group 9874" transform="translate(-0.576 145.474)">
      <g id="Group_9871" data-name="Group 9871" transform="translate(-863.283 -1431.032)">
        <circle id="Ellipse_8" data-name="Ellipse 8" cx="27.281" cy="27.281" r="27.281" transform="translate(1695.578 3065.296)" fill="none" stroke="#0874f7" stroke-miterlimit="10" stroke-width="1.5"/>
      </g>
    </g>
  </g>
</svg>
