<svg id="Group_11798" data-name="Group 11798" xmlns="http://www.w3.org/2000/svg" xmlns:xlink="http://www.w3.org/1999/xlink" width="10.065" height="20.903" viewBox="0 0 10.065 20.903">
  <defs>
    <clipPath id="clip-path">
      <rect id="Rectangle_2449" data-name="Rectangle 2449" width="10.065" height="20.903" fill="#fff"/>
    </clipPath>
  </defs>
  <g id="Group_11797" data-name="Group 11797" clip-path="url(#clip-path)">
    <path id="Path_24050" data-name="Path 24050" d="M0,6.013H2.187V4.895a7.439,7.439,0,0,1,.4-2.8A3.172,3.172,0,0,1,4.059.582,5.649,5.649,0,0,1,6.772,0a10.919,10.919,0,0,1,3.294.506L9.533,3.253a7.811,7.811,0,0,0-1.808-.225,1.615,1.615,0,0,0-1.226.4,2.306,2.306,0,0,0-.372,1.535v1.05H9.071v3.1H6.126V20.9H2.187V9.113H0Z" transform="translate(0 0)" fill="#fff"/>
  </g>
</svg>
