<svg id="Group_7458" data-name="Group 7458" xmlns="http://www.w3.org/2000/svg" width="17.87" height="18.476" viewBox="0 0 17.87 18.476">
  <path id="Path_23028" data-name="Path 23028" d="M182.609,539.127H179.04V531.4c0-.9-.257-1.537-1.37-1.537a2.141,2.141,0,0,0-2.2,1.537v7.723H171.9V526.636h3.569v1.194a5.962,5.962,0,0,1,3.569-1.193c1.157,0,3.569.693,3.569,4.875Z" transform="translate(-164.739 -520.651)" fill="#0f2d96" fill-rule="evenodd"/>
  <path id="Path_23029" data-name="Path 23029" d="M158.194,517.652h0a1.674,1.674,0,1,1,1.674-1.676A1.673,1.673,0,0,1,158.194,517.652Z" transform="translate(-156.3 -514.303)" fill="#0f2d96" fill-rule="evenodd"/>
  <path id="Path_23030" data-name="Path 23030" d="M159.422,539.127h-3.569v-12.49h3.569Z" transform="translate(-155.853 -520.651)" fill="#0f2d96" fill-rule="evenodd"/>
</svg>
