<svg xmlns="http://www.w3.org/2000/svg" xmlns:xlink="http://www.w3.org/1999/xlink" width="56.061" height="56.061" viewBox="0 0 56.061 56.061">
  <defs>
    <clipPath id="clip-path">
      <rect id="Rectangle_232" data-name="Rectangle 232" width="22.971" height="28.6" fill="#0f2d96"/>
    </clipPath>
  </defs>
  <g id="Group_12020" data-name="Group 12020" transform="translate(-831.25 -1493.251)">
    <g id="Group_9714" data-name="Group 9714" transform="translate(-863.578 -1571.295)">
      <circle id="Ellipse_8" data-name="Ellipse 8" cx="27.281" cy="27.281" r="27.281" transform="translate(1695.578 3065.296)" fill="none" stroke="#0874f7" stroke-miterlimit="10" stroke-width="1.5"/>
    </g>
    <g id="Group_9838" data-name="Group 9838" transform="translate(848 1507)">
      <g id="Group_9837" data-name="Group 9837" clip-path="url(#clip-path)">
        <path id="Path_23848" data-name="Path 23848" d="M11.486,0A11.5,11.5,0,0,0,0,11.486C0,16.943,5.922,23.5,10.889,28.042l.612.558.6-.574c5.5-5.293,10.872-10.93,10.872-16.54A11.5,11.5,0,0,0,11.486,0m-.013,26.174C5.207,20.323,1.767,15.126,1.767,11.486a9.719,9.719,0,1,1,19.437,0c0,4.729-4.721,9.831-9.732,14.688" transform="translate(0 0)" fill="#0f2d96"/>
        <path id="Path_23849" data-name="Path 23849" d="M12.418,8a4.418,4.418,0,1,0,4.418,4.418A4.423,4.423,0,0,0,12.418,8m0,7.068a2.651,2.651,0,1,1,2.651-2.651,2.654,2.654,0,0,1-2.651,2.651" transform="translate(-0.932 -0.932)" fill="#0f2d96"/>
      </g>
    </g>
  </g>
</svg>
