<svg xmlns="http://www.w3.org/2000/svg" xmlns:xlink="http://www.w3.org/1999/xlink" width="56.061" height="56.061" viewBox="0 0 56.061 56.061">
  <defs>
    <clipPath id="clip-path">
      <rect id="Rectangle_233" data-name="Rectangle 233" width="23.957" height="23.957" fill="#0f2d96"/>
    </clipPath>
  </defs>
  <g id="Group_12021" data-name="Group 12021" transform="translate(-831.25 -1636.25)">
    <g id="Group_9839" data-name="Group 9839" transform="translate(847 1652)" clip-path="url(#clip-path)">
      <path id="Path_23850" data-name="Path 23850" d="M27.214,10.655A20.069,20.069,0,0,0,16.567.059.766.766,0,0,0,15.557.5a.808.808,0,0,0,.427,1.042A18.5,18.5,0,0,1,25.8,11.31a.775.775,0,0,0,.708.473.748.748,0,0,0,.317-.071.811.811,0,0,0,.39-1.057" transform="translate(-3.325 0)" fill="#0f2d96"/>
      <path id="Path_23851" data-name="Path 23851" d="M15.467,6.987A11.207,11.207,0,0,1,21.421,12.9a.749.749,0,0,0,.684.456.723.723,0,0,0,.306-.068.779.779,0,0,0,.376-1.02,12.72,12.72,0,0,0-6.757-6.71.742.742,0,0,0-.976.425.779.779,0,0,0,.412,1" transform="translate(-3.218 -1.18)" fill="#0f2d96"/>
      <path id="Path_23852" data-name="Path 23852" d="M19.817,15.242a1.826,1.826,0,0,0-2.761,0c-.646.64-1.29,1.28-1.925,1.931a.44.44,0,0,1-.31.167.452.452,0,0,1-.221-.069c-.417-.228-.862-.412-1.263-.661a20.01,20.01,0,0,1-4.829-4.394,11.458,11.458,0,0,1-1.73-2.772.4.4,0,0,1,.1-.51c.645-.624,1.275-1.264,1.909-1.9A1.834,1.834,0,0,0,8.779,4.2c-.5-.51-1.009-1.009-1.514-1.518C6.745,2.164,6.229,1.637,5.7,1.122A1.983,1.983,0,0,0,4.323.5a1.965,1.965,0,0,0-1.38.628c-.652.64-1.275,1.3-1.937,1.925A3.143,3.143,0,0,0,.019,5.174a8.973,8.973,0,0,0,.7,3.867,23.485,23.485,0,0,0,4.171,6.948,25.8,25.8,0,0,0,8.548,6.688,12.349,12.349,0,0,0,4.735,1.378c.1.006.2.009.3.009a3.38,3.38,0,0,0,2.674-1.142c.553-.618,1.177-1.182,1.763-1.774a1.846,1.846,0,0,0,.011-2.81q-1.547-1.554-3.1-3.1m1.977,4.8c-.194.2-.392.387-.589.58-.408.4-.829.8-1.23,1.254a1.832,1.832,0,0,1-1.5.617c-.071,0-.143,0-.218-.006a10.653,10.653,0,0,1-4.135-1.221,24.367,24.367,0,0,1-8.033-6.288,21.828,21.828,0,0,1-3.9-6.489,7.376,7.376,0,0,1-.6-3.192,1.582,1.582,0,0,1,.505-1.105c.408-.389.8-.787,1.2-1.186.251-.253.5-.507.76-.76a.511.511,0,0,1,.276-.174.524.524,0,0,1,.281.174c.346.339.686.682,1.027,1.026l.518.518c.257.26.514.517.77.774s.5.5.745.748c.291.291.273.342,0,.613L7.4,6.191c-.537.543-1.074,1.083-1.641,1.631a1.956,1.956,0,0,0-.434,2.229A12.828,12.828,0,0,0,7.29,13.207a21.492,21.492,0,0,0,5.216,4.735,9.963,9.963,0,0,0,.9.481c.149.074.3.147.425.214a2,2,0,0,0,.994.273,1.968,1.968,0,0,0,1.435-.641c.621-.636,1.251-1.261,1.908-1.913a.516.516,0,0,1,.271-.174.52.52,0,0,1,.275.174q1.55,1.542,3.1,3.09c.238.24.263.318-.012.6" transform="translate(0 -0.107)" fill="#0f2d96"/>
    </g>
    <g id="Group_9871" data-name="Group 9871" transform="translate(-863.578 -1428.296)">
      <circle id="Ellipse_8" data-name="Ellipse 8" cx="27.281" cy="27.281" r="27.281" transform="translate(1695.578 3065.296)" fill="none" stroke="#0874f7" stroke-miterlimit="10" stroke-width="1.5"/>
    </g>
  </g>
</svg>
