<svg id="Group_11890" data-name="Group 11890" xmlns="http://www.w3.org/2000/svg" width="26.091" height="23.728" viewBox="0 0 26.091 23.728">
  <path id="Path_23793" data-name="Path 23793" d="M22.6,3.256A14.033,14.033,0,0,0,13.15,0a18.018,18.018,0,0,0-3.5.322A12.735,12.735,0,0,0,1.39,5.657,7.2,7.2,0,0,0,.04,10.6a9.4,9.4,0,0,0,3.907,6.866A13.491,13.491,0,0,0,7.5,19.289a8.041,8.041,0,0,1,3.918,2.749A14.338,14.338,0,0,0,12.555,23.3c.524.546.633.575,1.159.028.617-.641,1.179-1.337,1.739-2.031a5.1,5.1,0,0,1,2.669-1.8A12.243,12.243,0,0,0,23.3,16.437a8.426,8.426,0,0,0,2.748-5.405A8.674,8.674,0,0,0,22.6,3.256M24.59,11.15a6.914,6.914,0,0,1-1.7,3.693,9.488,9.488,0,0,1-4.606,3.024,8.019,8.019,0,0,0-4.388,3.06,1.7,1.7,0,0,1-.838.783,17.971,17.971,0,0,1-1.276-1.39,5.939,5.939,0,0,0-3.384-2.209A9.948,9.948,0,0,1,4.36,15.962a7.975,7.975,0,0,1-2.629-4A6.946,6.946,0,0,1,3.477,5.221a11.412,11.412,0,0,1,7.24-3.589c3.914-.536,7.593.032,10.794,2.544A7.281,7.281,0,0,1,24.59,11.15" transform="translate(0 0)" fill="#0f2d96"/>
  <path id="Path_23794" data-name="Path 23794" d="M6192,7338h12.2" transform="translate(-6185.057 -7328.848)" fill="none" stroke="#0f2d96" stroke-linecap="round" stroke-width="1.5"/>
  <path id="Path_23795" data-name="Path 23795" d="M6192,7338h6.587" transform="translate(-6182.248 -7326.136)" fill="none" stroke="#0f2d96" stroke-linecap="round" stroke-width="1.5"/>
</svg>
