<svg xmlns="http://www.w3.org/2000/svg" width="22.238" height="18.476" viewBox="0 0 22.238 18.476">
  <path id="Path_23027" data-name="Path 23027" d="M377.249,418.64a4.475,4.475,0,0,0,1.982-2.576,10.516,10.516,0,0,1-2.9,1.089,4.265,4.265,0,0,0-3.286-1.442,4.425,4.425,0,0,0-3.266,1.364,4.566,4.566,0,0,0-1.329,3.3,3.421,3.421,0,0,0,.144,1.038,12.137,12.137,0,0,1-9.423-4.855,4.767,4.767,0,0,0-.63,2.336,4.54,4.54,0,0,0,2.032,3.908,4.957,4.957,0,0,1-2.032-.593,4.716,4.716,0,0,0,1.013,3.021,4.457,4.457,0,0,0,2.613,1.634,4.757,4.757,0,0,1-1.209.149,2.245,2.245,0,0,1-.821-.1,4.549,4.549,0,0,0,4.253,3.269,8.762,8.762,0,0,1-5.656,1.978,7.1,7.1,0,0,1-1.114-.05,12.9,12.9,0,0,0,14.022.03,12.782,12.782,0,0,0,4.5-5.028,13.918,13.918,0,0,0,1.448-6.191v-.593a9.746,9.746,0,0,0,2.273-2.43A9.9,9.9,0,0,1,377.249,418.64Z" transform="translate(-357.617 -415.712)" fill="#0f2d96" fill-rule="evenodd"/>
</svg>
