<svg xmlns="http://www.w3.org/2000/svg" xmlns:xlink="http://www.w3.org/1999/xlink" width="342" height="224.995" viewBox="0 0 342 224.995">
  <defs>
    <filter id="Rectangle_2489" x="103" y="20.495" width="139" height="134" filterUnits="userSpaceOnUse">
      <feOffset dy="3" input="SourceAlpha"/>
      <feGaussianBlur stdDeviation="3" result="blur"/>
      <feFlood flood-color="#565656"/>
      <feComposite operator="in" in2="blur"/>
      <feComposite in="SourceGraphic"/>
    </filter>
    <filter id="Rectangle_2489-2" x="103" y="20.495" width="139" height="134" filterUnits="userSpaceOnUse">
      <feOffset dy="3" input="SourceAlpha"/>
      <feGaussianBlur stdDeviation="3" result="blur-2"/>
      <feFlood flood-color="#a0addb" flood-opacity="0.686" result="color"/>
      <feComposite operator="out" in="SourceGraphic" in2="blur-2"/>
      <feComposite operator="in" in="color"/>
      <feComposite operator="in" in2="SourceGraphic"/>
    </filter>
    <filter id="Union_42" x="55.46" y="58.995" width="234.01" height="166" filterUnits="userSpaceOnUse">
      <feOffset dy="7" input="SourceAlpha"/>
      <feGaussianBlur stdDeviation="9.5" result="blur-3"/>
      <feFlood flood-color="#a0addb" flood-opacity="0.686"/>
      <feComposite operator="in" in2="blur-3"/>
    </filter>
  </defs>
  <g id="Group_12024" data-name="Group 12024" transform="translate(-381 -266.847)">
    <g id="Group_11978" data-name="Group 11978">
      <g id="Group_11969" data-name="Group 11969" transform="translate(-259 -6845.658)">
        <g data-type="innerShadowGroup">
          <g transform="matrix(1, 0, 0, 1, 640, 7112.51)" filter="url(#Rectangle_2489)">
            <rect id="Rectangle_2489-3" data-name="Rectangle 2489" width="121" height="116" rx="3" transform="translate(112 26.49)" fill="#3780f3"/>
          </g>
          <g transform="matrix(1, 0, 0, 1, 640, 7112.51)" filter="url(#Rectangle_2489-2)">
            <rect id="Rectangle_2489-4" data-name="Rectangle 2489" width="121" height="116" rx="3" transform="translate(112 26.49)" fill="#fff"/>
          </g>
        </g>
        <path id="Path_24063" data-name="Path 24063" d="M22.382,25.04,35.422,0H0Z" transform="translate(873 7219.49) rotate(-90)" fill="#7aa8ef"/>
        <path id="Path_24064" data-name="Path 24064" d="M22.382,0l13.04,25.04H.512Z" transform="translate(726.96 7219.49) rotate(-90)" fill="#7aa8ef"/>
        <g id="Group_11970" data-name="Group 11970">
          <g transform="matrix(1, 0, 0, 1, 640, 7112.51)" filter="url(#Union_42)">
            <path id="Union_42-2" data-name="Union 42" d="M4667-7329.031l-176.918-.009-.046.041v-109l62.1,54.5-.105.093,52.944-.05-.049-.043,62.106-54.5v108.96l.01.008h-.01v.031Z" transform="translate(-4406.08 7518.49)" fill="#fff"/>
          </g>
          <path id="Polygon_38" data-name="Polygon 38" d="M52.5,0,105,60H0Z" transform="translate(838 7302) rotate(-90)" fill="#cddffc"/>
          <path id="Polygon_36" data-name="Polygon 36" d="M52.5,0,105,60H0Z" transform="translate(787 7197) rotate(90)" fill="#cddffc"/>
          <path id="Path_24061" data-name="Path 24061" d="M59.4.127,111.13.077l59.627,52.431-171-.009Z" transform="translate(727.254 7249.463)" fill="#deebff"/>
        </g>
      </g>
      <path id="Path_24066" data-name="Path 24066" d="M28.586,41.6,46.051,57.048,69.64,23.692" transform="translate(503.887 304.868)" fill="none" stroke="#fff" stroke-linecap="round" stroke-linejoin="round" stroke-width="8"/>
    </g>
    <g id="Group_11977" data-name="Group 11977" transform="translate(-407 -6821.658)">
      <g id="Ellipse_29" data-name="Ellipse 29" transform="translate(821 7200)" fill="none" stroke="#d8ddee" stroke-width="1">
        <circle cx="8" cy="8" r="8" stroke="none"/>
        <circle cx="8" cy="8" r="7.5" fill="none"/>
      </g>
      <g id="Ellipse_32" data-name="Ellipse 32" transform="translate(1113 7202)" fill="none" stroke="#d8ddee" stroke-width="1">
        <circle cx="8.5" cy="8.5" r="8.5" stroke="none"/>
        <circle cx="8.5" cy="8.5" r="8" fill="none"/>
      </g>
      <g id="Ellipse_30" data-name="Ellipse 30" transform="translate(1071 7131)" fill="#d8ddee" stroke="#d8ddee" stroke-width="1">
        <circle cx="6" cy="6" r="6" stroke="none"/>
        <circle cx="6" cy="6" r="5.5" fill="none"/>
      </g>
      <g id="Ellipse_31" data-name="Ellipse 31" transform="translate(843 7101)" fill="#bfc8e4" stroke="#bec5dc" stroke-width="1">
        <circle cx="5.5" cy="5.5" r="5.5" stroke="none"/>
        <circle cx="5.5" cy="5.5" r="5" fill="none"/>
      </g>
      <g id="Ellipse_33" data-name="Ellipse 33" transform="translate(788 7175)" fill="#bfc8e4" stroke="#bec5dc" stroke-width="1">
        <circle cx="3" cy="3" r="3" stroke="none"/>
        <circle cx="3" cy="3" r="2.5" fill="none"/>
      </g>
      <g id="Group_11972" data-name="Group 11972" transform="translate(0.5 -25.5)">
        <line id="Line_28" data-name="Line 28" x2="13" transform="translate(813.5 7168.5)" fill="none" stroke="#2c8bfc" stroke-linecap="round" stroke-width="2"/>
        <line id="Line_29" data-name="Line 29" y2="13" transform="translate(820 7162)" fill="none" stroke="#2c8bfc" stroke-linecap="round" stroke-width="2"/>
      </g>
      <g id="Group_11971" data-name="Group 11971" transform="translate(4 -20.896)">
        <line id="Line_35" data-name="Line 35" x2="11.788" transform="translate(1079.158 7242.896) rotate(60)" fill="none" stroke="#2c8bfc" stroke-linecap="round" stroke-width="2"/>
        <line id="Line_34" data-name="Line 34" y2="11.788" transform="translate(1087.208 7245.053) rotate(60)" fill="none" stroke="#2c8bfc" stroke-linecap="round" stroke-width="2"/>
      </g>
      <g id="Group_11975" data-name="Group 11975">
        <line id="Line_31" data-name="Line 31" x2="13" transform="translate(987.371 7092.25) rotate(30)" fill="none" stroke="#2c8bfc" stroke-linecap="round" stroke-width="2"/>
        <line id="Line_30" data-name="Line 30" y2="13" transform="translate(996.25 7089.871) rotate(30)" fill="none" stroke="#2c8bfc" stroke-linecap="round" stroke-width="2"/>
      </g>
      <g id="Group_11974" data-name="Group 11974">
        <line id="Line_33" data-name="Line 33" x2="15.925" transform="translate(1114.371 7153.252) rotate(30)" fill="none" stroke="#2c8bfc" stroke-linecap="round" stroke-width="2"/>
        <line id="Line_32" data-name="Line 32" y2="15.925" transform="translate(1125.248 7150.338) rotate(30)" fill="none" stroke="#2c8bfc" stroke-linecap="round" stroke-width="2"/>
      </g>
    </g>
  </g>
</svg>
