<svg xmlns="http://www.w3.org/2000/svg" width="41.271" height="47.874" viewBox="0 0 41.271 47.874">
  <g id="Group_9714" data-name="Group 9714" transform="translate(-1657.224 -3167.039)">
    <path id="Path_23796" data-name="Path 23796" d="M10.622,47.381.927,62.23c-.479.734.08,1.524.888,1.254l7.661-.871,2.878,6.218c.1.793,1.168.87,1.658.119l9.614-14.726Z" transform="translate(1657.25 3144.69)" fill="#fff" stroke="#0f2d96" stroke-width="1.5"/>
    <path id="Path_23797" data-name="Path 23797" d="M10.622,47.381.927,62.23c-.479.734.08,1.524.888,1.254l7.661-.871,2.878,6.218c.1.793,1.168.87,1.658.119l9.614-14.726Z" transform="translate(1657.25 3144.69)" fill="none" stroke="#0874f7" stroke-miterlimit="10" stroke-width="1.5"/>
    <path id="Path_23798" data-name="Path 23798" d="M46.1,47.381,55.794,62.23c.479.734-.08,1.524-.888,1.254l-7.661-.871-2.878,6.218c-.1.793-1.168.87-1.658.119L33.1,54.223Z" transform="translate(1641.748 3144.69)" fill="#fff" stroke="#0874f7" stroke-width="1.5"/>
    <path id="Path_23799" data-name="Path 23799" d="M46.1,47.381,55.794,62.23c.479.734-.08,1.524-.888,1.254l-7.661-.871-2.878,6.218c-.1.793-1.168.87-1.658.119L33.1,54.223Z" transform="translate(1641.748 3144.69)" fill="none" stroke="#0874f7" stroke-miterlimit="10" stroke-width="1.5"/>
    <path id="Path_23800" data-name="Path 23800" d="M40.3,18.537A17.787,17.787,0,1,1,22.517.75,17.787,17.787,0,0,1,40.3,18.537" transform="translate(1655.344 3167.039)" fill="#fff" stroke="#0874f7" stroke-width="1.5"/>
    <path id="Path_23801" data-name="Path 23801" d="M40.3,18.537A17.787,17.787,0,1,1,22.517.75,17.787,17.787,0,0,1,40.3,18.537Z" transform="translate(1655.344 3167.039)" fill="none" stroke="#0874f7" stroke-miterlimit="10" stroke-width="1.5"/>
    <path id="Path_23802" data-name="Path 23802" d="M40.025,21.765A14.281,14.281,0,1,1,25.745,7.484,14.281,14.281,0,0,1,40.025,21.765" transform="translate(1652.115 3163.812)" fill="#fff" stroke="#0874f7" stroke-width="1.5"/>
    <circle id="Ellipse_8" data-name="Ellipse 8" cx="14.281" cy="14.281" r="14.281" transform="translate(1663.578 3171.296)" fill="none" stroke="#0874f7" stroke-miterlimit="10" stroke-width="1.5"/>
    <path id="Path_23803" data-name="Path 23803" d="M28.586,30.875l4.6,4.066,8.308-7.955" transform="translate(1643.91 3154.465)" fill="#fff" stroke="#0f2d96" stroke-width="1.5"/>
    <path id="Path_23804" data-name="Path 23804" d="M28.586,30.875l4.6,4.066,8.308-7.955" transform="translate(1643.91 3154.465)" fill="none" stroke="#0f2d96" stroke-miterlimit="10" stroke-width="1.5"/>
  </g>
</svg>
