<svg xmlns="http://www.w3.org/2000/svg" width="48.918" height="48.918" viewBox="0 0 48.918 48.918">
  <g id="Group_12025" data-name="Group 12025" transform="translate(-479.082 -3129.789)">
    <path id="Path_23817" data-name="Path 23817" d="M24.459,48.918A24.459,24.459,0,0,1,24.459,0,24.2,24.2,0,0,1,35.524,2.64l-.789,1.553A22.478,22.478,0,0,0,24.459,1.742,22.7,22.7,0,1,0,44.43,13.621l1.53-.832a24.467,24.467,0,0,1-21.5,36.129" transform="translate(479.082 3129.789)" fill="#0874f7"/>
    <path id="Path_23818" data-name="Path 23818" d="M37.148,51.821a14.673,14.673,0,1,1,7.736-27.142l-.92,1.479a12.93,12.93,0,1,0,3.907,3.762l1.443-.975A14.675,14.675,0,0,1,37.148,51.821" transform="translate(466.393 3117.1)" fill="#0874f7"/>
    <path id="Path_23819" data-name="Path 23819" d="M50.482,54.871a4.389,4.389,0,1,1,1.161-8.623l-.46,1.68a2.645,2.645,0,1,0,1.86,1.879l1.685-.442a4.391,4.391,0,0,1-4.245,5.5" transform="translate(453.059 3103.766)" fill="#0874f7"/>
    <path id="Path_23820" data-name="Path 23820" d="M55.066,41.025a.871.871,0,0,1-.616-1.487L65.918,28.071A.871.871,0,0,1,67.149,29.3L55.682,40.77a.867.867,0,0,1-.616.255" transform="translate(448.484 3114.085)" fill="#0f2d96"/>
    <path id="Path_23821" data-name="Path 23821" d="M86.3,16.3h-.014l-5-.077a.87.87,0,0,1-.857-.857l-.077-5a.871.871,0,0,1,.255-.629L85.9,4.45a.871.871,0,0,1,1.467.431L88.149,8.5l3.623.786a.871.871,0,0,1,.431,1.467l-5.288,5.287a.869.869,0,0,1-.616.255m-4.14-1.805,3.784.058,3.9-3.9-2.61-.566a.871.871,0,0,1-.667-.666L86,6.81l-3.9,3.9Z" transform="translate(433.715 3127.421)" fill="#0f2d96"/>
  </g>
</svg>
