<svg xmlns="http://www.w3.org/2000/svg" width="17.564" height="23" viewBox="0 0 17.564 23">
  <g id="Group_9743" data-name="Group 9743" transform="translate(-1016.5 -5039.5)">
    <path id="Path_23334" data-name="Path 23334" d="M17.269,4.349,13.818.407a1.194,1.194,0,0,0-.9-.407H1.193A1.193,1.193,0,0,0,0,1.192V21.807A1.193,1.193,0,0,0,1.193,23H16.371a1.193,1.193,0,0,0,1.193-1.193V5.135a1.2,1.2,0,0,0-.3-.786M12.94,1.216l3.34,3.813H12.94Zm3.431,20.591H1.193V1.192H11.748V5.029A1.192,1.192,0,0,0,12.94,6.222h3.431Z" transform="translate(1016.5 5039.5)"/>
    <path id="Path_23339" data-name="Path 23339" d="M4993.667-14645.5l3.442,3.941,3.442-3.941" transform="translate(-3972 19696)" fill="none" stroke="#000" stroke-width="1.5"/>
  </g>
</svg>
