<svg xmlns="http://www.w3.org/2000/svg" width="50.971" height="46.889" viewBox="0 0 50.971 46.889">
  <g id="Group_9717" data-name="Group 9717" transform="translate(-1219.239 -3129.539)">
    <path id="Path_23805" data-name="Path 23805" d="M43.5,13.945a6.973,6.973,0,1,1,6.96-6.972,6.974,6.974,0,0,1-6.96,6.972M43.5,2a4.973,4.973,0,1,0,4.961,4.974A4.973,4.973,0,0,0,43.5,2" transform="translate(1201.229 3129.789)" fill="#0f2d96" stroke="#fff" stroke-width="0.5"/>
    <path id="Path_23806" data-name="Path 23806" d="M50.455,39.392h-2V32.7a1.5,1.5,0,0,0-1.5-1.5h-11.6a1.5,1.5,0,0,0-1.5,1.5v6.69h-2V32.7a3.5,3.5,0,0,1,3.5-3.5h11.6a3.5,3.5,0,0,1,3.5,3.5Z" transform="translate(1203.566 3115.184)" fill="#0f2d96" stroke="#fff" stroke-width="0.5"/>
    <path id="Path_23807" data-name="Path 23807" d="M24.865,61.448a1,1,0,0,1-.465-.115L21.479,59.8l-2.921,1.535a1,1,0,0,1-1.451-1.054l.558-3.252-2.363-2.3a1,1,0,0,1,.554-1.706l3.265-.474,1.461-2.959a1,1,0,0,1,1.793,0l1.46,2.959,3.266.474a1,1,0,0,1,.554,1.706l-2.363,2.3.558,3.252a1,1,0,0,1-.985,1.169m-6.716-6.742,1.289,1.256a1,1,0,0,1,.287.885l-.3,1.773,1.593-.838a1,1,0,0,1,.931,0l1.593.838-.3-1.774a1,1,0,0,1,.287-.885l1.289-1.256-1.781-.259a1,1,0,0,1-.753-.547l-.8-1.614-.8,1.614a1,1,0,0,1-.753.547Z" transform="translate(1211.998 3105.268)" fill="#0874f7" stroke="#fff" stroke-width="0.5"/>
    <path id="Path_23808" data-name="Path 23808" d="M9.864,80.346a1,1,0,0,1-.465-.115L6.478,78.7,3.558,80.231a1,1,0,0,1-1.451-1.054l.558-3.253L.3,73.622a1,1,0,0,1,.554-1.705l3.266-.475,1.46-2.959a1,1,0,0,1,1.793,0l1.461,2.959,3.265.475a1,1,0,0,1,.554,1.705l-2.363,2.3.558,3.253a1,1,0,0,1-.985,1.169M6.478,76.567a1,1,0,0,1,.465.115l1.593.837-.3-1.774a1,1,0,0,1,.287-.885L9.808,73.6l-1.781-.259a1,1,0,0,1-.753-.547l-.8-1.614-.8,1.614a1,1,0,0,1-.753.547L3.148,73.6,4.437,74.86a1,1,0,0,1,.287.885l-.3,1.774,1.593-.837a1,1,0,0,1,.465-.115" transform="translate(1219.5 3095.815)" fill="#0874f7" stroke="#fff" stroke-width="0.5"/>
    <path id="Path_23809" data-name="Path 23809" d="M47.368,80.346a1,1,0,0,1-.465-.115L43.982,78.7l-2.921,1.535a1,1,0,0,1-1.451-1.054l.558-3.253-2.363-2.3a1,1,0,0,1,.554-1.705l3.266-.475,1.46-2.959a1,1,0,0,1,1.793,0l1.461,2.959,3.265.475a1,1,0,0,1,.554,1.705l-2.363,2.3.558,3.253a1,1,0,0,1-.985,1.169m-3.386-3.779a1,1,0,0,1,.465.115l1.593.837-.3-1.774a1,1,0,0,1,.287-.885L47.312,73.6l-1.781-.259a1,1,0,0,1-.753-.547l-.8-1.614-.8,1.614a1,1,0,0,1-.753.547l-1.781.259,1.289,1.256a1,1,0,0,1,.287.885l-.3,1.774,1.593-.837a1,1,0,0,1,.465-.115" transform="translate(1200.742 3095.815)" fill="#0874f7" stroke="#fff" stroke-width="0.5"/>
    <path id="Path_23810" data-name="Path 23810" d="M84.872,80.346a1,1,0,0,1-.465-.115L81.486,78.7l-2.921,1.535a1,1,0,0,1-1.451-1.054l.558-3.253-2.363-2.3a1,1,0,0,1,.554-1.705l3.266-.475,1.46-2.959a1,1,0,0,1,1.793,0l1.461,2.959,3.265.475a1,1,0,0,1,.554,1.705l-2.363,2.3.558,3.253a1,1,0,0,1-.985,1.169m-3.386-3.779a1,1,0,0,1,.465.115l1.593.837-.3-1.774a1,1,0,0,1,.287-.885L84.816,73.6l-1.781-.259a1,1,0,0,1-.753-.547l-.8-1.614-.8,1.614a1,1,0,0,1-.753.547l-1.781.259,1.289,1.256a1,1,0,0,1,.287.885l-.3,1.774,1.593-.837a1,1,0,0,1,.465-.115" transform="translate(1181.984 3095.815)" fill="#0874f7" stroke="#fff" stroke-width="0.5"/>
    <path id="Path_23811" data-name="Path 23811" d="M69.865,61.448a1,1,0,0,1-.465-.115L66.479,59.8l-2.921,1.535a1,1,0,0,1-1.451-1.054l.558-3.252-2.363-2.3a1,1,0,0,1,.554-1.706l3.265-.474,1.461-2.959a1,1,0,0,1,1.793,0l1.46,2.959,3.266.474a1,1,0,0,1,.554,1.706l-2.363,2.3.558,3.252a1,1,0,0,1-.985,1.169m-6.716-6.742,1.289,1.256a1,1,0,0,1,.287.885l-.3,1.773,1.593-.838a1,1,0,0,1,.931,0l1.593.838-.3-1.774a1,1,0,0,1,.287-.885l1.289-1.256-1.781-.259a1,1,0,0,1-.753-.547l-.8-1.614-.8,1.614a1,1,0,0,1-.753.547Z" transform="translate(1189.49 3105.268)" fill="#0874f7" stroke="#fff" stroke-width="0.5"/>
  </g>
</svg>
