<svg id="Group_9766" data-name="Group 9766" xmlns="http://www.w3.org/2000/svg" xmlns:xlink="http://www.w3.org/1999/xlink" width="91.738" height="117.796" viewBox="0 0 91.738 117.796">
  <defs>
    <clipPath id="clip-path">
      <rect id="Rectangle_1" data-name="Rectangle 1" width="91.738" height="117.796" fill="#0f2d96"/>
    </clipPath>
  </defs>
  <g id="Group_1" data-name="Group 1" clip-path="url(#clip-path)">
    <path id="Path_1" data-name="Path 1" d="M137.062,136.654c.239.4.416.707.606,1.008,1.071,1.693,2.15,3.38,3.212,5.079a1.733,1.733,0,0,0,1.01.833c.635.189,1.245.463,1.862.7a3.741,3.741,0,0,1,.005,1.433,57.666,57.666,0,0,1-6.591.04c-.746-1.388-1.509-2.814-2.279-4.236s-1.547-2.841-2.315-4.25h-1.778a1.632,1.632,0,0,0-.091.359q0,2.756.006,5.511a1.1,1.1,0,0,0,.051.2c.826.384,1.783.51,2.681.889a4.551,4.551,0,0,1,.021,1.515,3.441,3.441,0,0,1-.5.075q-4.724.006-9.447,0a4.163,4.163,0,0,1-.444-.048,3.546,3.546,0,0,1-.051-1.536l2.756-.822c.021-.237.056-.444.056-.652q0-6.979,0-13.959c0-.188-.024-.377-.041-.62l-2.728-.9a3.437,3.437,0,0,1-.02-1.582c.231-.02.439-.054.646-.054,3.483,0,6.967-.037,10.449.013a8.028,8.028,0,0,1,4.6,1.328,4.953,4.953,0,0,1,2.123,3.647,6.577,6.577,0,0,1-.1,2.195,4.858,4.858,0,0,1-2.917,3.48c-.233.109-.469.212-.787.355m-6.315-8.945a2.936,2.936,0,0,0-.048.342q0,3.285,0,6.571a2.24,2.24,0,0,0,.095.437,5.774,5.774,0,0,0,3.319-.681,2.736,2.736,0,0,0,1.252-1.5,4.727,4.727,0,0,0,.092-2.674,2.945,2.945,0,0,0-2.14-2.273,10.385,10.385,0,0,0-2.254-.29,1.22,1.22,0,0,0-.316.07" transform="translate(-86.271 -88.137)" fill="#0f2d96"/>
    <path id="Path_2" data-name="Path 2" d="M130.233,237.3c-.033,2.052-.01,4.022-.015,6,.908.429,1.868.546,2.765.935a4.235,4.235,0,0,1-.015,1.458c-.641.153-9.768.153-10.408,0a3.875,3.875,0,0,1-.005-1.449l2.739-.829a5.178,5.178,0,0,0,.063-.569q.005-7.013,0-14.027c0-.165-.02-.329-.033-.526-.887-.427-1.871-.561-2.787-.991V225.91a1.056,1.056,0,0,1,.772-.137c1.884-.006,3.769,0,5.653,0,1.6,0,3.2-.02,4.794.006a7.947,7.947,0,0,1,4.223,1.145,4.83,4.83,0,0,1,2.311,3.453,6.164,6.164,0,0,1-.355,3.439,4.687,4.687,0,0,1-2.228,2.33c-.356.187-.722.357-1.126.556a4.839,4.839,0,0,0,.223.454c1.183,1.875,2.376,3.744,3.549,5.625a1.8,1.8,0,0,0,1.031.816c.61.2,1.2.443,1.793.663a3.623,3.623,0,0,1,0,1.442,55.7,55.7,0,0,1-6.528.035l-4.569-8.437Zm.036-9.483c-.022.207-.049.345-.049.483q0,3.146,0,6.293a3.21,3.21,0,0,0,.085.5,5.757,5.757,0,0,0,3.02-.5,2.952,2.952,0,0,0,1.7-2.243,4.66,4.66,0,0,0-.1-2.195,2.909,2.909,0,0,0-1.718-1.981,5.792,5.792,0,0,0-2.942-.362" transform="translate(-85.938 -158.394)" fill="#0f2d96"/>
    <path id="Path_3" data-name="Path 3" d="M57.361,235.87a10.851,10.851,0,0,1,2.08-6.51,8.832,8.832,0,0,1,5.251-3.6,8.345,8.345,0,0,1,7.223,1.542,10.029,10.029,0,0,1,3.823,6.183,10.218,10.218,0,0,1,.272,2.334,11.135,11.135,0,0,1-1.886,6.27,9.1,9.1,0,0,1-5.4,3.857,8.306,8.306,0,0,1-7.117-1.42,10.011,10.011,0,0,1-3.98-6.321c-.158-.764-.18-1.556-.264-2.336m13.093-.057c-.03-.389-.061-.816-.1-1.241a11.306,11.306,0,0,0-1.156-4.388,4.484,4.484,0,0,0-1.283-1.6,2.008,2.008,0,0,0-1.476-.412,2.451,2.451,0,0,0-1.554.936,7.2,7.2,0,0,0-1.415,2.857,15.077,15.077,0,0,0-.246,6.78,8.036,8.036,0,0,0,1.382,3.489,4.149,4.149,0,0,0,1.008.99,1.814,1.814,0,0,0,2.42-.188,4.373,4.373,0,0,0,1.1-1.388,13.4,13.4,0,0,0,1.308-5.832" transform="translate(-40.244 -158.216)" fill="#0f2d96"/>
    <path id="Path_4" data-name="Path 4" d="M216.715,225.777a22.137,22.137,0,0,1-.006,4.284H215.7l-.652-1.252c-.688-.075-1.424-.025-2.156-.034s-1.479-.01-2.219,0a21,21,0,0,0-2.184.04,32.54,32.54,0,0,0-.029,5.3,23.083,23.083,0,0,0,4.257.054l.688-1.291h1.017a6.037,6.037,0,0,1,.1,1.789c.022.619.01,1.24,0,1.861a16.29,16.29,0,0,1-.041,1.809,4.071,4.071,0,0,1-1.556.016l-.121-1.093c-1.453-.073-2.874-.039-4.319-.02a1.426,1.426,0,0,0-.1.355q-.008,2.469,0,4.938a1.172,1.172,0,0,0,.056.235,4.721,4.721,0,0,0,1.537.091c.5.02,1,0,1.5,0,.525,0,1.05.01,1.574,0a6.432,6.432,0,0,0,1.522-.071l.616-1.884a4.648,4.648,0,0,1,1.54.023,1.381,1.381,0,0,1,.072.295q.006,2.111,0,4.223a1.317,1.317,0,0,1-.069.284,1.264,1.264,0,0,1-.283.07q-7.693.005-15.386,0a1.465,1.465,0,0,1-.3-.071,3.865,3.865,0,0,1-.019-1.439c.86-.419,1.828-.518,2.678-.891.106-.579.129-14.207.027-15.1-.83-.457-1.838-.529-2.716-.982v-1.435a1.773,1.773,0,0,1,.864-.1q5.367,0,10.735,0h4.38" transform="translate(-140.804 -158.402)" fill="#0f2d96"/>
    <path id="Path_5" data-name="Path 5" d="M190.816,128.106l-2.456-.814a2.867,2.867,0,0,1-.039-1.531,1.76,1.76,0,0,1,.385-.084q4.614-.008,9.228,0a3.455,3.455,0,0,1,.384.047,5.529,5.529,0,0,1,.057,1.451c-.749.41-1.617.427-2.417.827v.694c0,3.267-.007,6.535.005,9.8a7.133,7.133,0,0,0,.387,2.386,3.942,3.942,0,0,0,2.986,2.693,5.568,5.568,0,0,0,2.412.039,4.061,4.061,0,0,0,3.185-3.131,8.7,8.7,0,0,0,.339-2.4q.008-4.543,0-9.087c0-.21-.027-.419-.044-.671l-3.215-1.026a4.145,4.145,0,0,1-.029-1.536,1.956,1.956,0,0,1,.408-.089q3.827-.008,7.654,0a2.7,2.7,0,0,1,.369.053,3.889,3.889,0,0,1,.068,1.459c-.775.451-1.684.609-2.526,1.055-.007.273-.022.555-.022.836,0,3.148.02,6.3-.011,9.444a7.291,7.291,0,0,1-1.26,4.108,6.676,6.676,0,0,1-2.881,2.386,9.842,9.842,0,0,1-3.886.832,14.1,14.1,0,0,1-4.245-.465,7.011,7.011,0,0,1-2.924-1.587,5.95,5.95,0,0,1-1.8-3.791,22.31,22.31,0,0,1-.108-2.351c-.012-2.886,0-5.772,0-8.657Z" transform="translate(-132.067 -88.172)" fill="#0f2d96"/>
    <path id="Path_6" data-name="Path 6" d="M91.487,5.5c1.987-.3,3.917-.593,5.846-.887.659-.1,1.316-.214,1.975-.309a1.506,1.506,0,0,1,1.238.3,1.006,1.006,0,0,1-.5,1.072q-2.076,1.64-4.143,3.29c-.183.145-.353.306-.549.478A8.2,8.2,0,0,0,96.5,10.655q1.5,1.481,3.011,2.956a1.118,1.118,0,0,1,.18.221c.24.4.087.8-.375.85a3.458,3.458,0,0,1-1.127-.088c-2.132-.509-4.258-1.044-6.386-1.567-.23-.056-.463-.1-.713-.153-.623.562-1.244,1.115-1.859,1.676q-1.32,1.2-2.633,2.415a1.5,1.5,0,0,1-1.225.471.682.682,0,0,1-.692-.6,5.652,5.652,0,0,1-.1-.849c-.028-.738-.024-1.478-.056-2.216-.03-.687-.092-1.372-.144-2.107-.273-.088-.539-.183-.81-.26Q80.028,10.4,76.487,9.4a6.2,6.2,0,0,1-.8-.291.757.757,0,0,1-.512-.585c.105-.4.458-.5.811-.551.729-.111,1.462-.193,2.194-.284q3.011-.374,6.023-.747a1.885,1.885,0,0,0,.3-.093,3.712,3.712,0,0,0,.074-.483c.01-.453,0-.907.007-1.36.029-1.381.058-2.762.1-4.142A.785.785,0,0,1,85.843.091a2.464,2.464,0,0,1,.745.53c1.442,1.425,2.872,2.863,4.306,4.3.184.184.373.365.593.579" transform="translate(-52.739 0)" fill="#0f2d96"/>
    <path id="Path_7" data-name="Path 7" d="M2.771,228.241l-2.725-.9v-1.459a1.691,1.691,0,0,1,.865-.107q5.9-.005,11.8,0c.882,0,1.765,0,2.647,0,.234,0,.468.021.685.031a18.377,18.377,0,0,1,.008,4.259H15.028l-.619-1.208c-.6-.105-5.736-.127-6.571-.031a1.063,1.063,0,0,0-.1.309q-.01,2.576,0,5.151a1.1,1.1,0,0,0,.061.256,21.975,21.975,0,0,0,4.121.036l.652-1.268h1.01a10.638,10.638,0,0,1,.058,1.8c.012.62.008,1.24,0,1.86a14.347,14.347,0,0,1-.047,1.808,3.639,3.639,0,0,1-1.457-.011c-.055-.346-.106-.669-.167-1.053a11.43,11.43,0,0,0-2.046-.064c-.688-.016-1.377,0-2.088,0a2.335,2.335,0,0,0-.1.453c-.006,1.479,0,2.957,0,4.436a1.78,1.78,0,0,0,.044.257c.813.46,1.808.488,2.689.945a10.326,10.326,0,0,1-.035,2A2.945,2.945,0,0,1,10,245.8c-3.286,0-6.573,0-9.882,0a3.439,3.439,0,0,1-.047-1.568l2.648-.793c.071-.09.088-.106.1-.126a.153.153,0,0,0,.025-.067q.016-7.119.029-14.237c0-.19-.011-.381-.024-.571a1.075,1.075,0,0,0-.075-.205" transform="translate(0 -158.401)" fill="#0f2d96"/>
    <path id="Path_8" data-name="Path 8" d="M33.169,85.092c-.194.386-.527.381-.865.309-.676-.142-1.348-.3-2.02-.455q-1.914-.44-3.828-.88a3.421,3.421,0,0,0-.354-.037c-.416.472-.856.967-1.29,1.467-.483.557-.953,1.128-1.446,1.676a1.223,1.223,0,0,1-.554.419c-.647.135-.947-.011-1.13-.658-.266-.939-.505-1.886-.758-2.829-.123-.459-.249-.918-.388-1.429-.179-.068-.37-.155-.57-.214q-2.744-.8-5.49-1.585c-.274-.079-.548-.164-.815-.266a1.562,1.562,0,0,1-.432-.243.4.4,0,0,1,.111-.734,2.576,2.576,0,0,1,.549-.153c1.752-.343,3.505-.68,5.257-1.023.16-.031.314-.09.484-.14a8.661,8.661,0,0,0-.207-2c-.1-.826-.238-1.648-.354-2.473-.043-.309-.1-.631.227-.836a.763.763,0,0,1,.925.146c.71.56,1.4,1.15,2.089,1.732.983.827,1.963,1.659,2.978,2.518,1.327-.194,2.666-.388,4.005-.585.471-.069.94-.15,1.411-.212a5.464,5.464,0,0,1,.642-.033c.318,0,.651.017.791.357s-.058.587-.272.83q-1.225,1.4-2.437,2.8c-.092.106-.166.226-.272.372.105.11.194.212.292.3,1.044.975,2.094,1.944,3.134,2.924.272.256.6.493.588.929" transform="translate(-9.148 -51.15)" fill="#0f2d96"/>
    <path id="Path_9" data-name="Path 9" d="M16.108,157.475c.379.334.714.633,1.054.927.793.686,1.585,1.373,2.385,2.05a.916.916,0,0,1,.411.707c-.219.346-.55.26-.844.216-.659-.1-1.314-.227-1.971-.342l-3.594-.623c-.436.4-.86.778-1.277,1.167-.471.438-.93.89-1.408,1.321a1.491,1.491,0,0,1-.535.335c-.5.151-.876-.054-1.143-.605-.394-.816-.784-1.634-1.157-2.459-.519-1.148-.513-1.149-1.691-1.485q-2.51-.714-5.018-1.436a1.4,1.4,0,0,1-.986-.606c.07-.341.332-.4.588-.461.581-.132,1.163-.258,1.745-.384.932-.2,1.864-.4,2.8-.6.205-.045.405-.114.639-.181a4.185,4.185,0,0,0-.035-.509c-.192-.982-.4-1.962-.589-2.944a2.771,2.771,0,0,1-.064-.637.391.391,0,0,1,.471-.414,2.272,2.272,0,0,1,.79.293c.629.388,1.236.812,1.851,1.222.913.609,1.832,1.209,2.735,1.832a1.4,1.4,0,0,0,1,.264c1.444-.147,2.891-.271,4.337-.4a6.466,6.466,0,0,1,.856-.033c.766.035.985.438.565,1.064-.452.673-.936,1.324-1.4,1.985-.151.213-.3.43-.5.733" transform="translate(-0.235 -105.594)" fill="#0f2d96"/>
    <path id="Path_10" data-name="Path 10" d="M124.076,337.928a34.93,34.93,0,0,1,2.648,2.877c-.168.38-.456.337-.705.318q-2.063-.162-4.123-.351a1.331,1.331,0,0,0-1,.243c-.645.49-1.319.943-1.981,1.411-.156.11-.307.229-.471.324a.873.873,0,0,1-1.165-.143c-.279-.292-.525-.616-.777-.933-.356-.448-.722-.89-1.047-1.359a1.582,1.582,0,0,0-.911-.632c-1.553-.463-3.1-.942-4.65-1.417a2.975,2.975,0,0,1-.54-.184,2.176,2.176,0,0,1-.376-.337,7.634,7.634,0,0,1,1.8-1.09c.593-.353,1.218-.651,1.865-.992.162-.759.326-1.525.489-2.292.02-.093.023-.19.045-.283.092-.382.283-.5.682-.4a5.411,5.411,0,0,1,.735.273c1.268.551,2.537,1.1,3.8,1.667a2.42,2.42,0,0,0,1.036.214c1.431-.008,2.863-.005,4.294,0a1.309,1.309,0,0,1,1,.259c.061.964-.542,1.821-.637,2.826" transform="translate(-76.455 -233.389)" fill="#0f2d96"/>
    <path id="Path_11" data-name="Path 11" d="M188.23,369.4a4.633,4.633,0,0,1,1.338-.759c.457-.255.931-.477,1.428-.729.049-.616.1-1.225.143-1.8a.863.863,0,0,1,.927-.016c.848.316,1.7.626,2.543.952a2.168,2.168,0,0,0,1.11.132c.9-.117,1.8-.161,2.7-.221a3.086,3.086,0,0,1,.542.055,1.055,1.055,0,0,1,.082.861c-.252,1.5-.177,1.156.657,2.052.269.29.633.509.752.909-.121.279-.35.249-.558.253-.881.019-1.763.048-2.644.044a1.748,1.748,0,0,0-1.067.322c-.428.3-.881.567-1.327.843-.58.36-.829.325-1.29-.182-.336-.37-.684-.732-.99-1.126a1.333,1.333,0,0,0-.826-.5q-1.429-.319-2.845-.695c-.234-.062-.536-.049-.675-.391" transform="translate(-132.062 -256.755)" fill="#0f2d96"/>
    <path id="Path_12" data-name="Path 12" d="M255.167,384.9a5.289,5.289,0,0,1-.62-.483,2.979,2.979,0,0,0-1.775-.967,6.526,6.526,0,0,1-.894-.237,1.863,1.863,0,0,1-.312-.163.828.828,0,0,1,.117-.213,3.057,3.057,0,0,1,.346-.25,4.559,4.559,0,0,0,1.064-.7,3.773,3.773,0,0,0,.449-1.124.773.773,0,0,1,.254-.054,2.223,2.223,0,0,1,.557.117,7.2,7.2,0,0,0,3.578.291c.232-.027.232-.03.595.179l-.252,1.1,1.048,1.153a2.352,2.352,0,0,1-.439.178,8.018,8.018,0,0,1-1.131.128,2.7,2.7,0,0,0-1.474.45c-.337.215-.707.38-1.114.594" transform="translate(-176.499 -267.103)" fill="#0f2d96"/>
    <path id="Path_13" data-name="Path 13" d="M290.467,384.86a1.978,1.978,0,0,1,.174-.282c.337-.363.691-.711,1.018-1.084a.621.621,0,0,1,.691-.231c.092.025.183.051.276.071a3.538,3.538,0,0,0,1.4.1c.318-.054.7-.2,1,.075a4.238,4.238,0,0,0,.106.771,4.855,4.855,0,0,0,.394.737,3.7,3.7,0,0,1-.664.187,3.067,3.067,0,0,0-1.4.469,1.017,1.017,0,0,1-1.359-.089,2.8,2.8,0,0,0-.75-.381c-.276-.12-.561-.218-.884-.342" transform="translate(-203.791 -268.877)" fill="#0f2d96"/>
  </g>
</svg>
