<svg id="Group_7525" data-name="Group 7525" xmlns="http://www.w3.org/2000/svg" xmlns:xlink="http://www.w3.org/1999/xlink" width="79.436" height="102" viewBox="0 0 79.436 102">
  <defs>
    <clipPath id="clip-path">
      <rect id="Rectangle_1" data-name="Rectangle 1" width="79.436" height="102" fill="#fff"/>
    </clipPath>
  </defs>
  <g id="Group_1" data-name="Group 1" clip-path="url(#clip-path)">
    <path id="Path_1" data-name="Path 1" d="M135.171,135.175c.207.345.36.612.525.873.927,1.466,1.862,2.927,2.782,4.4a1.5,1.5,0,0,0,.874.721c.55.164,1.078.4,1.612.605a3.24,3.24,0,0,1,0,1.241,49.932,49.932,0,0,1-5.708.034c-.646-1.2-1.307-2.437-1.973-3.668s-1.34-2.46-2-3.68h-1.54a1.412,1.412,0,0,0-.079.311q0,2.386.005,4.772a.954.954,0,0,0,.044.172c.715.333,1.544.442,2.322.77a3.941,3.941,0,0,1,.018,1.312,2.98,2.98,0,0,1-.43.065q-4.09.005-8.181,0a3.6,3.6,0,0,1-.384-.042,3.07,3.07,0,0,1-.044-1.33l2.386-.712c.018-.205.048-.385.048-.564q0-6.044,0-12.087c0-.163-.021-.326-.035-.537l-2.362-.777a2.976,2.976,0,0,1-.017-1.37c.2-.018.38-.047.56-.047,3.016,0,6.033-.032,9.048.011a6.952,6.952,0,0,1,3.987,1.15,4.289,4.289,0,0,1,1.839,3.158,5.7,5.7,0,0,1-.09,1.9,4.206,4.206,0,0,1-2.525,3.014c-.2.095-.406.183-.682.307m-5.468-7.746a2.541,2.541,0,0,0-.042.3q0,2.845,0,5.69a1.941,1.941,0,0,0,.082.379,5,5,0,0,0,2.874-.59,2.369,2.369,0,0,0,1.084-1.3,4.093,4.093,0,0,0,.079-2.315,2.55,2.55,0,0,0-1.853-1.968,8.991,8.991,0,0,0-1.951-.251,1.056,1.056,0,0,0-.274.06" transform="translate(-91.191 -93.163)" fill="#fff"/>
    <path id="Path_2" data-name="Path 2" d="M129.194,235.75c-.029,1.777-.009,3.483-.013,5.2.786.372,1.617.473,2.394.809a3.667,3.667,0,0,1-.013,1.262c-.555.133-8.458.133-9.012,0a3.355,3.355,0,0,1,0-1.255l2.372-.718a4.483,4.483,0,0,0,.054-.492q0-6.073,0-12.146c0-.143-.017-.285-.028-.455-.768-.369-1.62-.486-2.413-.858v-1.2a.914.914,0,0,1,.668-.119c1.632-.005,3.263,0,4.895,0,1.384,0,2.768-.017,4.151.005a6.881,6.881,0,0,1,3.657.991,4.182,4.182,0,0,1,2,2.99,5.337,5.337,0,0,1-.308,2.978,4.059,4.059,0,0,1-1.929,2.018c-.308.162-.625.309-.975.481a4.183,4.183,0,0,0,.193.393c1.024,1.624,2.058,3.242,3.074,4.871a1.561,1.561,0,0,0,.893.706c.528.169,1.042.383,1.553.574a3.137,3.137,0,0,1,0,1.248,48.23,48.23,0,0,1-5.652.03L130.8,235.75Zm.032-8.212c-.019.179-.042.3-.043.419q0,2.724,0,5.449a2.78,2.78,0,0,0,.074.437,4.985,4.985,0,0,0,2.615-.434,2.556,2.556,0,0,0,1.472-1.942,4.035,4.035,0,0,0-.084-1.9,2.519,2.519,0,0,0-1.488-1.715,5.015,5.015,0,0,0-2.548-.314" transform="translate(-90.839 -167.428)" fill="#fff"/>
    <path id="Path_3" data-name="Path 3" d="M57.361,234.48a9.4,9.4,0,0,1,1.8-5.637,7.648,7.648,0,0,1,4.547-3.116,7.226,7.226,0,0,1,6.255,1.335,8.685,8.685,0,0,1,3.31,5.354,8.848,8.848,0,0,1,.236,2.021,9.642,9.642,0,0,1-1.633,5.429,7.881,7.881,0,0,1-4.677,3.34,7.192,7.192,0,0,1-6.163-1.23A8.668,8.668,0,0,1,57.59,236.5c-.137-.662-.156-1.348-.229-2.022m11.337-.049c-.026-.337-.053-.706-.082-1.075a9.79,9.79,0,0,0-1-3.8,3.883,3.883,0,0,0-1.111-1.388,1.739,1.739,0,0,0-1.278-.356,2.122,2.122,0,0,0-1.346.81,6.237,6.237,0,0,0-1.225,2.474,13.055,13.055,0,0,0-.213,5.871,6.959,6.959,0,0,0,1.2,3.021,3.593,3.593,0,0,0,.873.857,1.571,1.571,0,0,0,2.1-.163,3.787,3.787,0,0,0,.957-1.2,11.6,11.6,0,0,0,1.133-5.05" transform="translate(-42.539 -167.24)" fill="#fff"/>
    <path id="Path_4" data-name="Path 4" d="M214.566,225.777a19.17,19.17,0,0,1-.005,3.709h-.875l-.565-1.084c-.6-.065-1.233-.022-1.867-.029s-1.281-.008-1.921,0a18.189,18.189,0,0,0-1.891.035,28.178,28.178,0,0,0-.025,4.589,19.986,19.986,0,0,0,3.686.047l.6-1.118h.881a5.227,5.227,0,0,1,.085,1.549c.019.536.009,1.074,0,1.611a14.1,14.1,0,0,1-.035,1.566,3.525,3.525,0,0,1-1.348.014l-.1-.946c-1.258-.064-2.489-.034-3.74-.017a1.234,1.234,0,0,0-.09.307q-.007,2.138,0,4.276a1.015,1.015,0,0,0,.048.2,4.088,4.088,0,0,0,1.331.079c.433.017.868,0,1.3,0,.454,0,.909.008,1.363,0a5.571,5.571,0,0,0,1.318-.062l.533-1.631a4.025,4.025,0,0,1,1.333.02,1.2,1.2,0,0,1,.062.255q.005,1.828,0,3.656a1.141,1.141,0,0,1-.059.246,1.094,1.094,0,0,1-.245.06q-6.661,0-13.323,0a1.267,1.267,0,0,1-.259-.061,3.347,3.347,0,0,1-.016-1.246c.744-.363,1.583-.449,2.319-.771.092-.5.112-12.3.023-13.077-.719-.4-1.591-.458-2.352-.85v-1.243a1.535,1.535,0,0,1,.748-.089q4.647,0,9.3,0h3.792" transform="translate(-148.834 -167.436)" fill="#fff"/>
    <path id="Path_5" data-name="Path 5" d="M190.47,127.78l-2.127-.7a2.482,2.482,0,0,1-.034-1.325,1.524,1.524,0,0,1,.333-.073q4-.007,7.991,0a2.99,2.99,0,0,1,.333.041,4.788,4.788,0,0,1,.049,1.257c-.649.355-1.4.37-2.093.716v.6c0,2.829-.006,5.659,0,8.488a6.177,6.177,0,0,0,.335,2.066,3.413,3.413,0,0,0,2.585,2.332,4.821,4.821,0,0,0,2.089.034,3.516,3.516,0,0,0,2.758-2.711,7.536,7.536,0,0,0,.294-2.077q.007-3.934,0-7.868c0-.181-.023-.363-.038-.581l-2.784-.888a3.589,3.589,0,0,1-.025-1.33,1.694,1.694,0,0,1,.353-.077q3.314-.007,6.628,0a2.336,2.336,0,0,1,.32.046,3.367,3.367,0,0,1,.059,1.264c-.671.39-1.459.527-2.187.914-.006.236-.019.48-.019.724,0,2.726.018,5.452-.009,8.178a6.314,6.314,0,0,1-1.091,3.557,5.781,5.781,0,0,1-2.495,2.066,8.522,8.522,0,0,1-3.365.721,12.208,12.208,0,0,1-3.676-.4,6.071,6.071,0,0,1-2.532-1.374,5.152,5.152,0,0,1-1.56-3.283,19.32,19.32,0,0,1-.094-2.036c-.01-2.5,0-5,0-7.5Z" transform="translate(-139.599 -93.201)" fill="#fff"/>
    <path id="Path_6" data-name="Path 6" d="M89.3,4.759c1.721-.261,3.391-.514,5.062-.768.571-.087,1.139-.185,1.71-.267a1.3,1.3,0,0,1,1.072.257.871.871,0,0,1-.429.928q-1.8,1.42-3.588,2.849c-.158.126-.306.265-.475.414a7.1,7.1,0,0,0,.992,1.055q1.3,1.283,2.607,2.56a.968.968,0,0,1,.156.191c.208.347.075.7-.325.736a3,3,0,0,1-.976-.076c-1.846-.441-3.687-.9-5.53-1.357-.2-.049-.4-.087-.617-.133-.54.486-1.077.966-1.61,1.451q-1.143,1.042-2.28,2.091a1.3,1.3,0,0,1-1.06.408.59.59,0,0,1-.6-.518,4.894,4.894,0,0,1-.09-.735c-.024-.639-.02-1.28-.049-1.919-.026-.595-.08-1.188-.125-1.824-.237-.076-.467-.159-.7-.225q-3.066-.871-6.132-1.74a5.371,5.371,0,0,1-.7-.252.655.655,0,0,1-.443-.506c.091-.345.4-.431.7-.477.631-.1,1.266-.167,1.9-.246q2.608-.324,5.215-.647a1.632,1.632,0,0,0,.257-.08,3.215,3.215,0,0,0,.064-.418c.009-.392,0-.785.006-1.177.025-1.2.05-2.392.086-3.587A.679.679,0,0,1,84.412.078a2.134,2.134,0,0,1,.645.459c1.249,1.234,2.486,2.479,3.728,3.72.16.16.323.316.514.5" transform="translate(-55.747 0)" fill="#fff"/>
    <path id="Path_7" data-name="Path 7" d="M2.4,227.91l-2.36-.777v-1.263a1.464,1.464,0,0,1,.749-.093q5.111,0,10.221,0c.764,0,1.528,0,2.292,0,.2,0,.4.018.593.027a15.912,15.912,0,0,1,.007,3.687h-.889l-.536-1.046c-.515-.091-4.967-.11-5.69-.027a.921.921,0,0,0-.084.268q-.009,2.231,0,4.461a.951.951,0,0,0,.052.222,19.03,19.03,0,0,0,3.568.031l.565-1.1h.875a9.211,9.211,0,0,1,.05,1.559c.01.537.007,1.074,0,1.611a12.424,12.424,0,0,1-.04,1.566,3.151,3.151,0,0,1-1.261-.01c-.048-.3-.092-.579-.144-.912a9.9,9.9,0,0,0-1.771-.056c-.6-.013-1.192,0-1.808,0a2.022,2.022,0,0,0-.089.392c0,1.28,0,2.561,0,3.841a1.542,1.542,0,0,0,.039.223c.7.4,1.565.422,2.329.818a8.941,8.941,0,0,1-.03,1.73,2.552,2.552,0,0,1-.378.058c-2.846,0-5.691,0-8.557,0a2.978,2.978,0,0,1-.041-1.358l2.293-.687c.061-.078.076-.092.086-.109a.133.133,0,0,0,.022-.058q.014-6.164.025-12.328c0-.165-.01-.33-.02-.495a.931.931,0,0,0-.065-.178" transform="translate(0 -167.434)" fill="#fff"/>
    <path id="Path_8" data-name="Path 8" d="M30.47,83.458c-.168.334-.456.33-.749.268-.585-.123-1.167-.26-1.749-.394q-1.658-.381-3.315-.762a2.961,2.961,0,0,0-.307-.032c-.36.409-.741.837-1.117,1.271-.419.483-.825.976-1.252,1.451a1.059,1.059,0,0,1-.48.363c-.56.117-.82-.01-.979-.569-.231-.813-.438-1.633-.656-2.45-.106-.4-.215-.795-.336-1.237-.155-.059-.321-.135-.494-.185q-2.376-.689-4.754-1.373c-.237-.069-.475-.142-.705-.23a1.353,1.353,0,0,1-.374-.21.35.35,0,0,1,.1-.636,2.231,2.231,0,0,1,.475-.133c1.517-.3,3.035-.589,4.552-.886.138-.027.272-.078.419-.121a7.5,7.5,0,0,0-.179-1.732c-.089-.715-.206-1.427-.306-2.141-.037-.267-.086-.547.2-.724a.66.66,0,0,1,.8.127c.615.484,1.209,1,1.808,1.5.851.716,1.7,1.436,2.579,2.18l3.468-.506c.408-.06.814-.13,1.222-.184a4.731,4.731,0,0,1,.556-.028c.276,0,.564.015.685.309s-.05.509-.235.719q-1.06,1.208-2.11,2.426c-.079.092-.144.2-.235.322.091.1.168.183.253.263.9.844,1.813,1.684,2.713,2.532.236.222.515.427.509.8" transform="translate(-9.669 -54.067)" fill="#fff"/>
    <path id="Path_9" data-name="Path 9" d="M13.993,156.54c.328.289.618.548.913.8.687.594,1.373,1.189,2.066,1.775a.793.793,0,0,1,.356.612c-.19.3-.476.225-.731.187-.571-.084-1.138-.2-1.707-.3l-3.112-.54c-.377.344-.745.674-1.106,1.01-.408.379-.8.771-1.219,1.144a1.291,1.291,0,0,1-.464.29c-.436.131-.759-.047-.99-.524-.341-.706-.679-1.415-1-2.129-.45-.994-.444-1-1.464-1.285q-2.173-.619-4.345-1.243a1.21,1.21,0,0,1-.853-.525c.06-.3.287-.349.509-.4.5-.115,1.007-.224,1.511-.332.807-.174,1.614-.343,2.421-.519.178-.039.351-.1.553-.157a3.624,3.624,0,0,0-.03-.441c-.167-.85-.343-1.7-.51-2.549a2.4,2.4,0,0,1-.055-.552.338.338,0,0,1,.408-.359,1.967,1.967,0,0,1,.684.253c.545.336,1.07.7,1.6,1.058.79.527,1.586,1.047,2.368,1.587a1.215,1.215,0,0,0,.864.229c1.251-.127,2.5-.235,3.755-.345a5.6,5.6,0,0,1,.741-.028c.663.03.853.38.489.922-.391.582-.811,1.146-1.216,1.719-.13.184-.256.372-.435.634" transform="translate(-0.248 -111.616)" fill="#fff"/>
    <path id="Path_10" data-name="Path 10" d="M122.051,337.221a30.24,30.24,0,0,1,2.293,2.491c-.146.329-.395.292-.611.275q-1.786-.14-3.57-.3a1.152,1.152,0,0,0-.869.211c-.559.424-1.142.816-1.715,1.221-.135.1-.266.2-.408.28a.756.756,0,0,1-1.009-.124c-.242-.252-.455-.534-.673-.808-.308-.388-.625-.771-.907-1.177a1.37,1.37,0,0,0-.789-.548c-1.345-.4-2.685-.816-4.027-1.227a2.576,2.576,0,0,1-.467-.16,1.886,1.886,0,0,1-.326-.291,6.61,6.61,0,0,1,1.555-.944c.513-.306,1.055-.564,1.615-.859.14-.657.282-1.321.423-1.985.017-.081.02-.165.039-.245.079-.331.245-.435.59-.343a4.684,4.684,0,0,1,.637.237c1.1.477,2.2.952,3.288,1.443a2.1,2.1,0,0,0,.9.185c1.239-.007,2.479,0,3.718,0a1.134,1.134,0,0,1,.867.224c.053.835-.469,1.577-.552,2.447" transform="translate(-80.816 -246.7)" fill="#fff"/>
    <path id="Path_11" data-name="Path 11" d="M188.23,368.934a4.01,4.01,0,0,1,1.158-.657c.4-.221.806-.413,1.237-.632.042-.534.084-1.061.123-1.562a.747.747,0,0,1,.8-.013c.734.274,1.471.542,2.2.825a1.877,1.877,0,0,0,.961.114c.775-.1,1.559-.139,2.34-.191a2.673,2.673,0,0,1,.47.048.914.914,0,0,1,.071.746c-.218,1.3-.153,1,.568,1.776.233.251.548.441.651.787-.1.242-.3.215-.483.219-.763.017-1.527.042-2.29.038a1.514,1.514,0,0,0-.924.279c-.37.261-.763.491-1.149.73-.5.311-.718.282-1.117-.158-.291-.32-.593-.634-.858-.975a1.155,1.155,0,0,0-.715-.434q-1.237-.276-2.463-.6c-.2-.053-.464-.042-.585-.338" transform="translate(-139.594 -271.398)" fill="#fff"/>
    <path id="Path_12" data-name="Path 12" d="M254.684,384.337a4.579,4.579,0,0,1-.537-.418,2.58,2.58,0,0,0-1.537-.837,5.653,5.653,0,0,1-.774-.205,1.614,1.614,0,0,1-.27-.141.717.717,0,0,1,.1-.185,2.647,2.647,0,0,1,.3-.217,3.947,3.947,0,0,0,.922-.606,3.266,3.266,0,0,0,.389-.973.67.67,0,0,1,.22-.046,1.926,1.926,0,0,1,.482.1,6.231,6.231,0,0,0,3.1.252c.2-.023.2-.026.515.155l-.218.954.908,1a2.038,2.038,0,0,1-.38.154,6.942,6.942,0,0,1-.979.111,2.34,2.34,0,0,0-1.276.39c-.292.187-.612.329-.964.514" transform="translate(-186.565 -282.337)" fill="#fff"/>
    <path id="Path_13" data-name="Path 13" d="M290.467,384.642a1.716,1.716,0,0,1,.15-.244c.292-.314.6-.616.881-.938a.538.538,0,0,1,.6-.2c.079.022.159.044.239.062a3.064,3.064,0,0,0,1.214.085c.276-.047.609-.175.868.065a3.671,3.671,0,0,0,.091.667,4.2,4.2,0,0,0,.341.638,3.2,3.2,0,0,1-.575.162,2.656,2.656,0,0,0-1.216.406.88.88,0,0,1-1.176-.077,2.427,2.427,0,0,0-.65-.33c-.239-.1-.486-.189-.766-.3" transform="translate(-215.414 -284.211)" fill="#fff"/>
  </g>
</svg>
