<svg xmlns="http://www.w3.org/2000/svg" xmlns:xlink="http://www.w3.org/1999/xlink" width="94" height="94" viewBox="0 0 94 94">
  <defs>
    <clipPath id="clip-path">
      <rect id="Rectangle_2425" data-name="Rectangle 2425" width="49.764" height="56.143" fill="none" stroke="#0f2d96" stroke-width="2"/>
    </clipPath>
  </defs>
  <g id="Group_11980" data-name="Group 11980" transform="translate(-32.676 -33.908)">
    <g id="Path_24026" data-name="Path 24026" transform="translate(32.676 33.908)" fill="none">
      <path d="M47,0A47,47,0,1,1,0,47,47,47,0,0,1,47,0Z" stroke="none"/>
      <path d="M 47 1 C 40.78960037231445 1 34.76549911499023 2.216087341308594 29.09502410888672 4.614501953125 C 23.61750030517578 6.931297302246094 18.69795989990234 10.24819946289062 14.47309112548828 14.47309112548828 C 10.24819946289062 18.69795989990234 6.931297302246094 23.61750030517578 4.614501953125 29.09502410888672 C 2.216087341308594 34.76549911499023 1 40.78960037231445 1 47 C 1 53.21039962768555 2.216087341308594 59.23450088500977 4.614501953125 64.90497589111328 C 6.931297302246094 70.38249969482422 10.24819946289062 75.30204010009766 14.47309112548828 79.52691650390625 C 18.69795989990234 83.75180053710938 23.61750030517578 87.06870269775391 29.09502410888672 89.385498046875 C 34.76549911499023 91.78391265869141 40.78960037231445 93 47 93 C 53.21039962768555 93 59.23450088500977 91.78391265869141 64.90497589111328 89.385498046875 C 70.38249969482422 87.06870269775391 75.30204010009766 83.75180053710938 79.52691650390625 79.52691650390625 C 83.75180053710938 75.30204010009766 87.06870269775391 70.38249969482422 89.385498046875 64.90497589111328 C 91.78391265869141 59.23450088500977 93 53.21039962768555 93 47 C 93 40.78960037231445 91.78391265869141 34.76549911499023 89.385498046875 29.09502410888672 C 87.06870269775391 23.61750030517578 83.75180053710938 18.69795989990234 79.52691650390625 14.47309112548828 C 75.30204010009766 10.24819946289062 70.38249969482422 6.931297302246094 64.90497589111328 4.614501953125 C 59.23450088500977 2.216087341308594 53.21039962768555 1 47 1 M 47 0 C 72.95738983154297 0 94 21.04261016845703 94 47 C 94 72.95738983154297 72.95738983154297 94 47 94 C 21.04261016845703 94 0 72.95738983154297 0 47 C 0 21.04261016845703 21.04261016845703 0 47 0 Z" stroke="none" fill="#49f"/>
    </g>
    <g id="Group_11721" data-name="Group 11721" transform="translate(54.794 52.837)">
      <g id="Group_11721-2" data-name="Group 11721" clip-path="url(#clip-path)">
        <path id="Path_24026-2" data-name="Path 24026" d="M94.07,18.847a6.615,6.615,0,1,1,6.615-6.615A6.614,6.614,0,0,1,94.07,18.847Z" transform="translate(-69.137 -4.441)" fill="none" stroke="#0f2d96" stroke-linecap="round" stroke-linejoin="round" stroke-width="2"/>
        <path id="Path_24027" data-name="Path 24027" d="M82.336,118.157v27.031a2.941,2.941,0,0,0,2.854,3.186,3.154,3.154,0,0,0,3.121-3.186V133.415a1.711,1.711,0,0,1,3.423,0v11.773a3.154,3.154,0,0,0,3.121,3.186,2.941,2.941,0,0,0,2.854-3.186V118.157" transform="translate(-65.09 -93.408)" fill="none" stroke="#0f2d96" stroke-linecap="round" stroke-linejoin="round" stroke-width="2"/>
        <path id="Path_24028" data-name="Path 24028" d="M61.3,101.337a2.92,2.92,0,0,1-2.889,2.949,2.723,2.723,0,0,1-2.642-2.949V91.16a6.742,6.742,0,0,1,6.742-6.742H75.529a6.742,6.742,0,0,1,6.742,6.742v10.177a2.723,2.723,0,0,1-2.642,2.949,2.92,2.92,0,0,1-2.89-2.949" transform="translate(-44.084 -66.736)" fill="none" stroke="#0f2d96" stroke-linecap="round" stroke-linejoin="round" stroke-width="2"/>
        <path id="Path_24029" data-name="Path 24029" d="M29.849,62.843a5.587,5.587,0,1,1,8.316-7.237" transform="translate(-21.994 -41.861)" fill="none" stroke="#2c8bfc" stroke-linecap="round" stroke-linejoin="round" stroke-width="2"/>
        <path id="Path_24030" data-name="Path 24030" d="M28.058,147.38v21.405a2.484,2.484,0,0,0,2.41,2.691,2.664,2.664,0,0,0,2.636-2.691v-9.258a1.445,1.445,0,0,1,1.445-1.445" transform="translate(-22.181 -116.51)" fill="none" stroke="#2c8bfc" stroke-linecap="round" stroke-linejoin="round" stroke-width="2"/>
        <path id="Path_24031" data-name="Path 24031" d="M10.289,132.437a2.466,2.466,0,0,1-2.44,2.491,2.3,2.3,0,0,1-2.231-2.491v-7.856a5.694,5.694,0,0,1,5.694-5.694h-.36" transform="translate(-4.441 -93.985)" fill="none" stroke="#2c8bfc" stroke-linecap="round" stroke-linejoin="round" stroke-width="2"/>
        <path id="Path_24032" data-name="Path 24032" d="M168.7,62.843a5.587,5.587,0,1,0-8.316-7.237" transform="translate(-126.79 -41.861)" fill="none" stroke="#2c8bfc" stroke-linecap="round" stroke-linejoin="round" stroke-width="2"/>
        <path id="Path_24033" data-name="Path 24033" d="M185.023,147.38v21.405a2.484,2.484,0,0,1-2.41,2.691,2.664,2.664,0,0,1-2.636-2.691v-9.258a1.445,1.445,0,0,0-1.445-1.445" transform="translate(-141.136 -116.51)" fill="none" stroke="#2c8bfc" stroke-linecap="round" stroke-linejoin="round" stroke-width="2"/>
        <path id="Path_24034" data-name="Path 24034" d="M205.8,132.437a2.466,2.466,0,0,0,2.44,2.491,2.3,2.3,0,0,0,2.231-2.491v-7.856a5.694,5.694,0,0,0-5.694-5.694h.361" transform="translate(-161.888 -93.985)" fill="none" stroke="#2c8bfc" stroke-linecap="round" stroke-linejoin="round" stroke-width="2"/>
      </g>
    </g>
  </g>
</svg>
